<mxfile host="65bd71144e">
    <diagram id="eUwLk50XWX5yU54eQo7h" name="PÃ¡gina-1">
        <mxGraphModel dx="259" dy="1353" grid="1" gridSize="10" guides="1" tooltips="1" connect="1" arrows="1" fold="1" page="1" pageScale="1" pageWidth="827" pageHeight="1169" math="0" shadow="0">
            <root>
                <mxCell id="0"/>
                <mxCell id="1" parent="0"/>
                <mxCell id="22" value="Domain" style="swimlane;html=1;rounded=1;shadow=0;sketch=1;fillColor=none;align=center;verticalAlign=middle;whiteSpace=wrap;fontColor=#ffffff;strokeColor=#2D7600;strokeWidth=2;" vertex="1" parent="1">
                    <mxGeometry x="30" y="-720" width="591" height="350" as="geometry">
                        <mxRectangle x="430" y="350" width="80" height="30" as="alternateBounds"/>
                    </mxGeometry>
                </mxCell>
                <mxCell id="23" style="edgeStyle=none;html=1;entryX=0.5;entryY=1;entryDx=0;entryDy=0;strokeWidth=2;fillColor=#1ba1e2;strokeColor=#006EAF;" edge="1" parent="22" source="2" target="12">
                    <mxGeometry relative="1" as="geometry"/>
                </mxCell>
                <mxCell id="64" style="edgeStyle=none;html=1;exitX=0.25;exitY=1;exitDx=0;exitDy=0;entryX=0.5;entryY=0;entryDx=0;entryDy=0;strokeColor=#006EAF;strokeWidth=2;fillColor=#1ba1e2;" edge="1" parent="22" source="2" target="25">
                    <mxGeometry relative="1" as="geometry">
                        <Array as="points">
                            <mxPoint x="249" y="240"/>
                            <mxPoint x="121" y="240"/>
                        </Array>
                    </mxGeometry>
                </mxCell>
                <mxCell id="93" style="edgeStyle=none;html=1;exitX=0.75;exitY=0;exitDx=0;exitDy=0;entryX=0.5;entryY=1;entryDx=0;entryDy=0;strokeColor=#006EAF;strokeWidth=2;fontColor=#FFFFFF;fillColor=#1ba1e2;" edge="1" parent="22" source="2" target="32">
                    <mxGeometry relative="1" as="geometry">
                        <Array as="points">
                            <mxPoint x="342" y="120"/>
                            <mxPoint x="480" y="120"/>
                        </Array>
                    </mxGeometry>
                </mxCell>
                <mxCell id="2" value="CreateNewWalletUseCase" style="rounded=1;whiteSpace=wrap;html=1;strokeWidth=2;fillWeight=4;hachureGap=8;hachureAngle=45;fillColor=default;sketch=1;fontColor=#ffffff;strokeColor=#006EAF;" vertex="1" parent="22">
                    <mxGeometry x="202.5" y="145" width="186" height="40" as="geometry"/>
                </mxCell>
                <mxCell id="9" value="CreateNewWallet" style="whiteSpace=wrap;html=1;fillColor=default;rounded=1;strokeWidth=2;fillWeight=4;hachureGap=8;hachureAngle=45;sketch=1;fontColor=#ffffff;strokeColor=#3700CC;" vertex="1" parent="22">
                    <mxGeometry x="235.5" y="275" width="120" height="40" as="geometry"/>
                </mxCell>
                <mxCell id="10" value="" style="edgeStyle=none;html=1;fillColor=#1ba1e2;strokeColor=#006EAF;strokeWidth=2;dashed=1;" edge="1" parent="22" source="2" target="9">
                    <mxGeometry relative="1" as="geometry"/>
                </mxCell>
                <mxCell id="12" value="SaveNewWallet" style="whiteSpace=wrap;html=1;fillColor=default;strokeColor=#3700CC;fontColor=#ffffff;rounded=1;strokeWidth=2;fillWeight=4;hachureGap=8;hachureAngle=45;sketch=1;" vertex="1" parent="22">
                    <mxGeometry x="235.5" y="45" width="120" height="40" as="geometry"/>
                </mxCell>
                <mxCell id="25" value="Wallet" style="rounded=1;whiteSpace=wrap;html=1;shadow=0;sketch=1;fillColor=default;fontColor=#ffffff;strokeColor=#A50040;strokeWidth=2;" vertex="1" parent="22">
                    <mxGeometry x="81" y="275" width="79" height="40" as="geometry"/>
                </mxCell>
                <mxCell id="32" value="LoadWallet" style="whiteSpace=wrap;html=1;fillColor=default;strokeColor=#3700CC;fontColor=#ffffff;rounded=1;strokeWidth=2;fillWeight=4;hachureGap=8;hachureAngle=45;sketch=1;" vertex="1" parent="22">
                    <mxGeometry x="421" y="45" width="120" height="40" as="geometry"/>
                </mxCell>
                <mxCell id="34" value="Infraestructure" style="swimlane;whiteSpace=wrap;html=1;rounded=1;shadow=0;sketch=1;fillColor=none;startSize=23;strokeWidth=2;fontColor=#ffffff;strokeColor=#2D7600;" vertex="1" parent="1">
                    <mxGeometry x="31" y="-1130" width="590" height="350" as="geometry">
                        <mxRectangle x="160" y="-100" width="80" height="30" as="alternateBounds"/>
                    </mxGeometry>
                </mxCell>
                <mxCell id="37" value="MongoWalletRepository" style="rounded=1;whiteSpace=wrap;html=1;strokeWidth=2;fillWeight=4;hachureGap=8;hachureAngle=45;fillColor=default;sketch=1;fontColor=#ffffff;strokeColor=#006EAF;" vertex="1" parent="34">
                    <mxGeometry x="300" y="260" width="186" height="40" as="geometry"/>
                </mxCell>
                <mxCell id="47" value="TypeORM" style="whiteSpace=wrap;html=1;aspect=fixed;rounded=1;shadow=0;sketch=1;strokeWidth=2;fillColor=default;fontColor=#ffffff;strokeColor=#6F0000;" vertex="1" parent="1">
                    <mxGeometry x="661" y="-870" width="60" height="40" as="geometry"/>
                </mxCell>
                <mxCell id="48" style="edgeStyle=none;html=1;exitX=1;exitY=0.5;exitDx=0;exitDy=0;entryX=0;entryY=0.5;entryDx=0;entryDy=0;strokeColor=#006EAF;strokeWidth=2;fillColor=#1ba1e2;" edge="1" parent="1" source="37" target="47">
                    <mxGeometry relative="1" as="geometry"/>
                </mxCell>
                <mxCell id="49" value="Application" style="swimlane;html=1;rounded=1;shadow=0;sketch=1;fillColor=none;align=center;verticalAlign=middle;whiteSpace=wrap;fontColor=#ffffff;strokeColor=#2D7600;strokeWidth=2;" vertex="1" parent="1">
                    <mxGeometry x="30" y="-330" width="591" height="420" as="geometry">
                        <mxRectangle x="159" y="700" width="80" height="30" as="alternateBounds"/>
                    </mxGeometry>
                </mxCell>
                <mxCell id="68" value="" style="edgeStyle=none;html=1;strokeColor=#006EAF;strokeWidth=2;fillColor=#1ba1e2;" edge="1" parent="49" source="52" target="67">
                    <mxGeometry relative="1" as="geometry"/>
                </mxCell>
                <mxCell id="52" value="WalletController" style="rounded=1;whiteSpace=wrap;html=1;strokeWidth=2;fillWeight=4;hachureGap=8;hachureAngle=45;fillColor=default;sketch=1;fontColor=#ffffff;strokeColor=#006EAF;" vertex="1" parent="49">
                    <mxGeometry x="226.5" y="70" width="138" height="40" as="geometry"/>
                </mxCell>
                <mxCell id="62" style="edgeStyle=none;html=1;entryX=0.5;entryY=0;entryDx=0;entryDy=0;strokeColor=#006EAF;strokeWidth=2;fillColor=#1ba1e2;" edge="1" parent="49" source="53" target="61">
                    <mxGeometry relative="1" as="geometry"/>
                </mxCell>
                <mxCell id="53" value="Controller" style="whiteSpace=wrap;html=1;fillColor=default;rounded=1;strokeWidth=2;fillWeight=4;hachureGap=8;hachureAngle=45;sketch=1;fontColor=#ffffff;strokeColor=#3700CC;" vertex="1" parent="49">
                    <mxGeometry x="391" y="200" width="120" height="40" as="geometry"/>
                </mxCell>
                <mxCell id="54" value="" style="edgeStyle=none;html=1;fillColor=#1ba1e2;strokeColor=#006EAF;strokeWidth=2;dashed=1;exitX=0.75;exitY=1;exitDx=0;exitDy=0;entryX=0.5;entryY=0;entryDx=0;entryDy=0;" edge="1" parent="49" source="52" target="53">
                    <mxGeometry relative="1" as="geometry">
                        <Array as="points">
                            <mxPoint x="331" y="160"/>
                            <mxPoint x="451" y="160"/>
                        </Array>
                    </mxGeometry>
                </mxCell>
                <mxCell id="61" value="ValidationComposite" style="rounded=1;whiteSpace=wrap;html=1;strokeWidth=2;fillWeight=4;hachureGap=8;hachureAngle=45;fillColor=default;sketch=1;fontColor=#ffffff;strokeColor=#006EAF;" vertex="1" parent="49">
                    <mxGeometry x="385" y="300" width="132" height="40" as="geometry"/>
                </mxCell>
                <mxCell id="70" style="edgeStyle=none;html=1;strokeColor=#006EAF;strokeWidth=2;fillColor=#1ba1e2;" edge="1" parent="49" source="67" target="69">
                    <mxGeometry relative="1" as="geometry"/>
                </mxCell>
                <mxCell id="67" value="ValidationBuilder" style="whiteSpace=wrap;html=1;strokeColor=#006EAF;fontColor=#ffffff;rounded=1;strokeWidth=2;fillWeight=4;hachureGap=8;hachureAngle=45;sketch=1;" vertex="1" parent="49">
                    <mxGeometry x="235.5" y="200" width="120" height="40" as="geometry"/>
                </mxCell>
                <mxCell id="69" value="RequiredString" style="whiteSpace=wrap;html=1;strokeColor=#006EAF;fontColor=#ffffff;rounded=1;strokeWidth=2;fillWeight=4;hachureGap=8;hachureAngle=45;sketch=1;" vertex="1" parent="49">
                    <mxGeometry x="235.5" y="300" width="120" height="40" as="geometry"/>
                </mxCell>
                <mxCell id="60" style="edgeStyle=none;html=1;entryX=0.5;entryY=1;entryDx=0;entryDy=0;strokeColor=#006EAF;strokeWidth=2;fillColor=#1ba1e2;" edge="1" parent="1" source="52" target="9">
                    <mxGeometry relative="1" as="geometry"/>
                </mxCell>
                <mxCell id="65" style="edgeStyle=none;html=1;exitX=0.75;exitY=1;exitDx=0;exitDy=0;entryX=0.5;entryY=0;entryDx=0;entryDy=0;strokeColor=#006EAF;strokeWidth=2;fillColor=#1ba1e2;dashed=1;" edge="1" parent="1" source="37" target="32">
                    <mxGeometry relative="1" as="geometry">
                        <Array as="points">
                            <mxPoint x="471" y="-760"/>
                            <mxPoint x="511" y="-760"/>
                        </Array>
                    </mxGeometry>
                </mxCell>
                <mxCell id="66" style="edgeStyle=none;html=1;exitX=0.25;exitY=1;exitDx=0;exitDy=0;entryX=0.5;entryY=0;entryDx=0;entryDy=0;dashed=1;strokeColor=#006EAF;strokeWidth=2;fillColor=#1ba1e2;" edge="1" parent="1" source="37" target="12">
                    <mxGeometry relative="1" as="geometry">
                        <Array as="points">
                            <mxPoint x="378" y="-760"/>
                            <mxPoint x="326" y="-760"/>
                        </Array>
                    </mxGeometry>
                </mxCell>
                <mxCell id="71" value="Main" style="swimlane;startSize=20;horizontal=1;childLayout=treeLayout;horizontalTree=0;resizable=0;containerType=tree;fontSize=12;rounded=1;shadow=0;sketch=1;fillStyle=auto;strokeWidth=2;fillColor=none;fontColor=#ffffff;strokeColor=#6F0000;" vertex="1" parent="1">
                    <mxGeometry x="698" y="-300" width="160" height="190" as="geometry"/>
                </mxCell>
                <mxCell id="72" value="App" style="whiteSpace=wrap;html=1;rounded=1;shadow=0;fillStyle=auto;strokeWidth=2;fillColor=default;glass=0;sketch=1;curveFitting=1;jiggle=2;fontColor=#FFFFFF;strokeColor=#C73500;" vertex="1" parent="71">
                    <mxGeometry x="30" y="40" width="100" height="40" as="geometry"/>
                </mxCell>
                <mxCell id="79" value="" style="edgeStyle=none;html=1;fillColor=#fa6800;strokeColor=#C73500;strokeWidth=2;" edge="1" source="72" target="80" parent="71">
                    <mxGeometry relative="1" as="geometry"/>
                </mxCell>
                <mxCell id="80" value="Middlewares" style="whiteSpace=wrap;html=1;rounded=1;shadow=0;fillStyle=auto;strokeWidth=2;fillColor=default;glass=0;sketch=1;curveFitting=1;jiggle=2;fontColor=#FFFFFF;strokeColor=#C73500;" vertex="1" parent="71">
                    <mxGeometry x="20" y="130" width="120" height="40" as="geometry"/>
                </mxCell>
                <mxCell id="77" value="Express" style="whiteSpace=wrap;html=1;aspect=fixed;rounded=1;shadow=0;sketch=1;strokeWidth=2;fillColor=default;fontColor=#ffffff;strokeColor=#6F0000;" vertex="1" parent="1">
                    <mxGeometry x="921" y="-260" width="60" height="40" as="geometry"/>
                </mxCell>
                <mxCell id="78" style="edgeStyle=none;html=1;exitX=1;exitY=0.5;exitDx=0;exitDy=0;strokeColor=#C73500;strokeWidth=2;fontColor=#FFFFFF;fillColor=#fa6800;" edge="1" parent="1" source="72" target="77">
                    <mxGeometry relative="1" as="geometry"/>
                </mxCell>
                <mxCell id="81" style="edgeStyle=none;html=1;strokeColor=#C73500;strokeWidth=2;fontColor=#FFFFFF;fillColor=#fa6800;entryX=0;entryY=0.5;entryDx=0;entryDy=0;" edge="1" parent="1" target="82">
                    <mxGeometry relative="1" as="geometry">
                        <mxPoint x="921" y="-180.16666666666652" as="targetPoint"/>
                        <mxPoint x="841" y="-150" as="sourcePoint"/>
                    </mxGeometry>
                </mxCell>
                <mxCell id="82" value="Cors" style="whiteSpace=wrap;html=1;aspect=fixed;rounded=1;shadow=0;sketch=1;strokeWidth=2;fillColor=default;fontColor=#ffffff;strokeColor=#6F0000;" vertex="1" parent="1">
                    <mxGeometry x="921" y="-170" width="60" height="40" as="geometry"/>
                </mxCell>
                <mxCell id="84" style="edgeStyle=none;html=1;entryX=0.5;entryY=0;entryDx=0;entryDy=0;strokeColor=default;strokeWidth=2;fontColor=#FFFFFF;" edge="1" parent="1" source="83" target="72">
                    <mxGeometry relative="1" as="geometry"/>
                </mxCell>
                <mxCell id="86" style="edgeStyle=none;html=1;exitX=0.75;exitY=0;exitDx=0;exitDy=0;entryX=0;entryY=0.5;entryDx=0;entryDy=0;strokeColor=default;strokeWidth=2;fontColor=#FFFFFF;" edge="1" parent="1" source="83" target="85">
                    <mxGeometry relative="1" as="geometry">
                        <Array as="points">
                            <mxPoint x="808" y="-580"/>
                        </Array>
                    </mxGeometry>
                </mxCell>
                <mxCell id="83" value="index.ts" style="shape=ext;double=1;rounded=1;whiteSpace=wrap;html=1;shadow=0;glass=0;sketch=1;fillStyle=auto;strokeWidth=2;fontColor=#FFFFFF;fillColor=default;" vertex="1" parent="1">
                    <mxGeometry x="718" y="-510" width="120" height="40" as="geometry"/>
                </mxCell>
                <mxCell id="85" value="module-alias" style="whiteSpace=wrap;html=1;rounded=1;shadow=0;sketch=1;strokeWidth=2;fillColor=default;fontColor=#ffffff;strokeColor=#6F0000;" vertex="1" parent="1">
                    <mxGeometry x="871" y="-600" width="100" height="40" as="geometry"/>
                </mxCell>
                <mxCell id="87" style="edgeStyle=none;html=1;entryX=1;entryY=0.5;entryDx=0;entryDy=0;strokeColor=#006EAF;strokeWidth=2;fontColor=#FFFFFF;fillColor=#1ba1e2;" edge="1" parent="1" source="72" target="52">
                    <mxGeometry relative="1" as="geometry"/>
                </mxCell>
            </root>
        </mxGraphModel>
    </diagram>
</mxfile>